<svg width="26" height="26" viewBox="0 0 26 26" fill="none" xmlns="http://www.w3.org/2000/svg">
<path d="M21.9375 0H4.0625C1.81884 0 0 1.81884 0 4.0625V21.9375C0 24.1812 1.81884 26 4.0625 26H21.9375C24.1812 26 26 24.1812 26 21.9375V4.0625C26 1.81884 24.1812 0 21.9375 0Z" fill="black"/>
<path fill-rule="evenodd" clip-rule="evenodd" d="M12.9801 6.65601C9.40214 6.65601 6.5 9.55815 6.5 13.1361C6.5 15.9985 8.3685 18.4236 10.9128 19.2982C11.2309 19.338 11.3502 19.1392 11.3502 18.9802C11.3502 18.8211 11.3502 18.4236 11.3502 17.867C9.56116 18.2646 9.16361 16.9924 9.16361 16.9924C8.88532 16.237 8.44801 16.0383 8.44801 16.0383C7.85168 15.6407 8.48777 15.6407 8.48777 15.6407C9.12385 15.6805 9.48165 16.3166 9.48165 16.3166C10.078 17.3104 10.9924 17.0322 11.3502 16.8731C11.3899 16.4358 11.5887 16.1575 11.7477 15.9985C10.3165 15.8395 8.80581 15.2829 8.80581 12.7783C8.80581 12.0627 9.04434 11.5062 9.48165 11.0291C9.4419 10.9098 9.20336 10.234 9.56116 9.35937C9.56116 9.35937 10.1177 9.20035 11.3502 10.0352C11.867 9.87619 12.4235 9.83643 12.9801 9.83643C13.5367 9.83643 14.0933 9.91594 14.6101 10.0352C15.8425 9.20035 16.3991 9.35937 16.3991 9.35937C16.7569 10.234 16.5183 10.9098 16.4786 11.0688C16.8761 11.5062 17.1544 12.1025 17.1544 12.8181C17.1544 15.3227 15.6437 15.8395 14.2125 15.9985C14.4511 16.1973 14.6498 16.5948 14.6498 17.1912C14.6498 18.0658 14.6498 18.7416 14.6498 18.9802C14.6498 19.1392 14.7691 19.338 15.0872 19.2982C17.6713 18.4236 19.5 15.9985 19.5 13.1361C19.4602 9.55815 16.5581 6.65601 12.9801 6.65601Z" fill="white"/>
</svg>
